<mxfile host="app.diagrams.net" modified="2022-09-23T12:26:14.367Z" agent="5.0 (Windows NT 10.0; Win64; x64) AppleWebKit/537.36 (KHTML, like Gecko) Chrome/105.0.0.0 Safari/537.36 Edg/105.0.1343.42" etag="CaopKI3OJygMj7LUxNkh" version="20.3.6" type="github">
  <diagram id="C5RBs43oDa-KdzZeNtuy" name="Page-1">
    <mxGraphModel dx="781" dy="446" grid="1" gridSize="10" guides="1" tooltips="1" connect="1" arrows="1" fold="1" page="1" pageScale="1" pageWidth="827" pageHeight="1169" background="#F1FAEE" math="0" shadow="0">
      <root>
        <mxCell id="WIyWlLk6GJQsqaUBKTNV-0" />
        <mxCell id="WIyWlLk6GJQsqaUBKTNV-1" parent="WIyWlLk6GJQsqaUBKTNV-0" />
        <mxCell id="WIyWlLk6GJQsqaUBKTNV-2" value="" style="rounded=0;html=1;jettySize=auto;orthogonalLoop=1;fontSize=11;endArrow=block;endFill=0;endSize=8;strokeWidth=1;shadow=0;labelBackgroundColor=none;edgeStyle=orthogonalEdgeStyle;strokeColor=#457B9D;fontColor=#1D3557;" parent="WIyWlLk6GJQsqaUBKTNV-1" edge="1">
          <mxGeometry relative="1" as="geometry">
            <mxPoint x="200" y="120" as="sourcePoint" />
            <mxPoint x="205" y="160" as="targetPoint" />
          </mxGeometry>
        </mxCell>
        <mxCell id="h3B3OJ4SWizQfUW-aOiw-8" value="&lt;font style=&quot;font-size: 16px;&quot;&gt;Input Int X&lt;/font&gt;" style="shape=parallelogram;perimeter=parallelogramPerimeter;whiteSpace=wrap;html=1;fixedSize=1;fontSize=19;fillColor=#A8DADC;strokeColor=#457B9D;fontColor=#1D3557;" vertex="1" parent="WIyWlLk6GJQsqaUBKTNV-1">
          <mxGeometry x="110" y="160" width="180" height="80" as="geometry" />
        </mxCell>
        <mxCell id="h3B3OJ4SWizQfUW-aOiw-12" value="" style="edgeStyle=orthogonalEdgeStyle;rounded=0;orthogonalLoop=1;jettySize=auto;html=1;labelBackgroundColor=#F1FAEE;strokeColor=#457B9D;fontColor=#1D3557;" edge="1" parent="WIyWlLk6GJQsqaUBKTNV-1" source="h3B3OJ4SWizQfUW-aOiw-11" target="h3B3OJ4SWizQfUW-aOiw-8">
          <mxGeometry relative="1" as="geometry" />
        </mxCell>
        <mxCell id="h3B3OJ4SWizQfUW-aOiw-11" value="&lt;font style=&quot;font-size: 16px;&quot;&gt;Initialize Int=x&lt;/font&gt;" style="rounded=0;whiteSpace=wrap;html=1;fillColor=#A8DADC;strokeColor=#457B9D;fontColor=#1D3557;" vertex="1" parent="WIyWlLk6GJQsqaUBKTNV-1">
          <mxGeometry x="40" y="290" width="170" height="60" as="geometry" />
        </mxCell>
        <mxCell id="h3B3OJ4SWizQfUW-aOiw-16" value="Start&amp;nbsp;" style="ellipse;whiteSpace=wrap;html=1;fontSize=15;fillColor=#A8DADC;strokeColor=#457B9D;fontColor=#1D3557;" vertex="1" parent="WIyWlLk6GJQsqaUBKTNV-1">
          <mxGeometry x="150" y="40" width="120" height="80" as="geometry" />
        </mxCell>
        <mxCell id="h3B3OJ4SWizQfUW-aOiw-24" value="" style="edgeStyle=orthogonalEdgeStyle;rounded=0;orthogonalLoop=1;jettySize=auto;html=1;fontSize=15;labelBackgroundColor=#F1FAEE;strokeColor=#457B9D;fontColor=#1D3557;" edge="1" parent="WIyWlLk6GJQsqaUBKTNV-1" source="h3B3OJ4SWizQfUW-aOiw-23" target="h3B3OJ4SWizQfUW-aOiw-11">
          <mxGeometry relative="1" as="geometry" />
        </mxCell>
        <mxCell id="h3B3OJ4SWizQfUW-aOiw-26" value="" style="edgeStyle=orthogonalEdgeStyle;rounded=0;orthogonalLoop=1;jettySize=auto;html=1;fontSize=15;labelBackgroundColor=#F1FAEE;strokeColor=#457B9D;fontColor=#1D3557;" edge="1" parent="WIyWlLk6GJQsqaUBKTNV-1" source="h3B3OJ4SWizQfUW-aOiw-23" target="h3B3OJ4SWizQfUW-aOiw-25">
          <mxGeometry relative="1" as="geometry" />
        </mxCell>
        <mxCell id="h3B3OJ4SWizQfUW-aOiw-28" value="" style="edgeStyle=orthogonalEdgeStyle;rounded=0;orthogonalLoop=1;jettySize=auto;html=1;fontSize=15;labelBackgroundColor=#F1FAEE;strokeColor=#457B9D;fontColor=#1D3557;" edge="1" parent="WIyWlLk6GJQsqaUBKTNV-1" source="h3B3OJ4SWizQfUW-aOiw-23" target="h3B3OJ4SWizQfUW-aOiw-27">
          <mxGeometry relative="1" as="geometry" />
        </mxCell>
        <mxCell id="h3B3OJ4SWizQfUW-aOiw-23" value="If x+int&amp;lt;0" style="rhombus;whiteSpace=wrap;html=1;fontSize=15;fillColor=#A8DADC;strokeColor=#457B9D;fontColor=#1D3557;" vertex="1" parent="WIyWlLk6GJQsqaUBKTNV-1">
          <mxGeometry x="105" y="420" width="150" height="80" as="geometry" />
        </mxCell>
        <mxCell id="h3B3OJ4SWizQfUW-aOiw-25" value="End&amp;nbsp;" style="ellipse;whiteSpace=wrap;html=1;fontSize=15;fillColor=#A8DADC;strokeColor=#457B9D;fontColor=#1D3557;" vertex="1" parent="WIyWlLk6GJQsqaUBKTNV-1">
          <mxGeometry x="365" y="390" width="105" height="90" as="geometry" />
        </mxCell>
        <mxCell id="h3B3OJ4SWizQfUW-aOiw-30" value="" style="edgeStyle=orthogonalEdgeStyle;rounded=0;orthogonalLoop=1;jettySize=auto;html=1;fontSize=16;labelBackgroundColor=#F1FAEE;strokeColor=#457B9D;fontColor=#1D3557;" edge="1" parent="WIyWlLk6GJQsqaUBKTNV-1" source="h3B3OJ4SWizQfUW-aOiw-27" target="h3B3OJ4SWizQfUW-aOiw-29">
          <mxGeometry relative="1" as="geometry" />
        </mxCell>
        <mxCell id="h3B3OJ4SWizQfUW-aOiw-27" value="If r=x&lt;br&gt;while x is&amp;gt; 0&lt;br&gt;sum=r*r" style="whiteSpace=wrap;html=1;fontSize=15;fillColor=#A8DADC;strokeColor=#457B9D;fontColor=#1D3557;" vertex="1" parent="WIyWlLk6GJQsqaUBKTNV-1">
          <mxGeometry x="245" y="550" width="120" height="70" as="geometry" />
        </mxCell>
        <mxCell id="h3B3OJ4SWizQfUW-aOiw-32" value="" style="edgeStyle=orthogonalEdgeStyle;rounded=0;orthogonalLoop=1;jettySize=auto;html=1;fontSize=16;labelBackgroundColor=#F1FAEE;strokeColor=#457B9D;fontColor=#1D3557;" edge="1" parent="WIyWlLk6GJQsqaUBKTNV-1" source="h3B3OJ4SWizQfUW-aOiw-29" target="h3B3OJ4SWizQfUW-aOiw-31">
          <mxGeometry relative="1" as="geometry" />
        </mxCell>
        <mxCell id="h3B3OJ4SWizQfUW-aOiw-29" value="Print&amp;nbsp;" style="whiteSpace=wrap;html=1;fontSize=15;fillColor=#A8DADC;strokeColor=#457B9D;fontColor=#1D3557;" vertex="1" parent="WIyWlLk6GJQsqaUBKTNV-1">
          <mxGeometry x="100" y="640" width="120" height="50" as="geometry" />
        </mxCell>
        <mxCell id="h3B3OJ4SWizQfUW-aOiw-31" value="End" style="ellipse;whiteSpace=wrap;html=1;fontSize=15;fillColor=#A8DADC;strokeColor=#457B9D;fontColor=#1D3557;" vertex="1" parent="WIyWlLk6GJQsqaUBKTNV-1">
          <mxGeometry x="100" y="740" width="120" height="60" as="geometry" />
        </mxCell>
      </root>
    </mxGraphModel>
  </diagram>
</mxfile>
